<?xml version="1.0" encoding="utf-8"?>
<!-- Generator: Adobe Illustrator 19.2.1, SVG Export Plug-In . SVG Version: 6.00 Build 0)  -->
<svg version="1.1" id="Layer_2" xmlns="http://www.w3.org/2000/svg" xmlns:xlink="http://www.w3.org/1999/xlink" x="0px" y="0px"
	 viewBox="0 0 80.3 80.3" style="enable-background:new 0 0 80.3 80.3;" xml:space="preserve">
<style type="text/css">
	.st0{fill:#EB6A5C;}
	.st1{fill:#552F2F;}
	.st2{fill:#55AB99;}
	.st3{fill:#2F4555;}
	.st4{fill:#FFFFFF;}
	.st5{fill:#ED6B5A;}
	.st6{fill:#0C2C48;}
	.st7{fill:#F1CC4B;}
	.st8{clip-path:url(#SVGID_2_);}
	.st9{clip-path:url(#SVGID_2_);fill:#F6A09C;}
	.st10{fill:#50646F;}
	.st11{fill:#FCA886;}
	.st12{fill:#EDAB7E;}
	.st13{fill:#332319;}
	.st14{fill:#E07E45;}
	.st15{fill:#FF8F8F;}
	.st16{fill:#A6D1D9;}
	.st17{fill:#628185;}
	.st18{fill:#BABABA;}
	.st19{fill:#698391;}
	.st20{opacity:0.41;fill:#FFFFFF;}
	.st21{fill:#F6A09C;}
	.st22{fill:#FFF3C9;}
	.st23{fill:#2384AB;}
	.st24{fill:#BABFC5;}
	.st25{clip-path:url(#SVGID_4_);}
	.st26{fill:#6EB9E0;}
	.st27{fill:#F8A06D;}
	.st28{fill:#A3B9C4;}
	.st29{fill:#3B4A52;}
	.st30{clip-path:url(#SVGID_6_);}
	.st31{clip-path:url(#SVGID_8_);fill:#F6A09C;}
	.st32{opacity:0.21;fill:#FFFFFF;}
	.st33{clip-path:url(#SVGID_10_);fill:#F6A09C;}
	.st34{clip-path:url(#SVGID_12_);}
	.st35{fill:#FFD3B5;}
	.st36{fill:#BFD9E6;}
	.st37{fill:#798287;}
	.st38{fill:#A4A8AD;}
	.st39{fill:#FFD6BA;}
	.st40{fill:none;stroke:#0C2C48;stroke-width:1.4;stroke-miterlimit:10;}
</style>
<g>
	<circle class="st10" cx="40.2" cy="40.2" r="40.2"/>
	<g>
		<g>
			<path class="st2" d="M63.5,45c0,0.6-0.5,1-1,1H17.8c-0.6,0-1-0.5-1-1V10c0-0.6,0.5-1,1-1h44.6c0.6,0,1,0.5,1,1V45z"/>
			<rect x="19.1" y="13.7" class="st4" width="42.1" height="26.3"/>
			<rect x="36.8" y="11.2" class="st10" width="6.8" height="1.2"/>
		</g>
		<g>
			<g>
				<circle class="st6" cx="40.2" cy="27.2" r="12.5"/>
				<rect x="39.5" y="14.5" class="st4" width="1.3" height="25.5"/>
			</g>
			<g>
				<path class="st5" d="M38.8,32h-1.4l-1.1-2.9h-4L31.3,32H30l3.6-9.5h1.3L38.8,32z M35.9,28.1l-1.7-4.4l-1.6,4.4H35.9z"/>
			</g>
			<g>
				<path class="st7" d="M49.1,29.2c0,0.9-0.3,1.6-0.9,2.1c-0.6,0.5-1.5,0.7-2.7,0.7H42v-9.5h3.4c0.5,0,1,0.1,1.4,0.2
					c0.4,0.1,0.7,0.3,1,0.5c0.3,0.2,0.5,0.5,0.6,0.8c0.1,0.3,0.2,0.6,0.2,1c0,0.9-0.5,1.6-1.4,2c0.3,0.1,0.6,0.2,0.8,0.3
					c0.2,0.2,0.4,0.3,0.6,0.5c0.1,0.2,0.3,0.4,0.3,0.7C49.1,28.7,49.1,29,49.1,29.2z M43.3,26.4h2.1c0.7,0,1.2-0.1,1.5-0.3
					c0.3-0.2,0.5-0.6,0.5-1.1c0-0.2,0-0.4-0.1-0.6c-0.1-0.2-0.2-0.3-0.4-0.4c-0.2-0.1-0.4-0.2-0.7-0.3c-0.3-0.1-0.6-0.1-1-0.1h-2
					V26.4z M43.3,30.8h2.3c1.5,0,2.3-0.5,2.3-1.6c0-0.3,0-0.5-0.1-0.7c-0.1-0.2-0.2-0.4-0.4-0.5c-0.2-0.1-0.4-0.2-0.7-0.3
					c-0.3-0.1-0.7-0.1-1.1-0.1h-2.1V30.8z"/>
			</g>
		</g>
	</g>
	<g>
		<path class="st10" d="M54.8,74.7v-6.8c0-5.6-4.1-10.2-9.4-11.1c1.2-1.3,1.9-3,1.9-4.9v-3.4c0-4-3.2-7.2-7.2-7.2
			c-4,0-7.2,3.2-7.2,7.2v3.4c0,1.9,0.7,3.6,1.9,4.9c-5.3,0.9-9.4,5.5-9.4,11.1v6.8H54.8z"/>
		<g>
			<g>
				<path class="st11" d="M46.1,51.9c0,3.3-2.7,5.9-5.9,5.9l0,0c-3.3,0-5.9-2.7-5.9-5.9v-3.4c0-3.3,2.7-5.9,5.9-5.9l0,0
					c3.3,0,5.9,2.7,5.9,5.9V51.9z"/>
			</g>
			<path class="st7" d="M31.8,73.5v-6.6H33v6.6h14.9v-6.6h1.2v6.6h4.4v-5.6c0-5.5-4.5-10-10-10h-6.7c-5.5,0-10,4.5-10,10v5.6H31.8z"
				/>
		</g>
	</g>
</g>
</svg>
